<svg width="160" height="144" viewBox="0 0 160 144" fill="none" xmlns="http://www.w3.org/2000/svg">
<path d="M80 33.25C80 25.0283 76.7339 17.1433 70.9203 11.3297C65.1067 5.51606 57.2217 2.25 49 2.25H2.5V118.5H56.75C62.9163 118.5 68.83 120.95 73.1902 125.31C77.5505 129.67 80 135.584 80 141.75M80 33.25V141.75M80 33.25C80 25.0283 83.2661 17.1433 89.0797 11.3297C94.8933 5.51606 102.778 2.25 111 2.25H157.5V118.5H103.25C97.0837 118.5 91.17 120.95 86.8098 125.31C82.4495 129.67 80 135.584 80 141.75" stroke="#1E1E1E" stroke-width="4" stroke-linecap="round" stroke-linejoin="round"/>
</svg>
